<?xml version="1.0" encoding="UTF-8" standalone="no"?>
<svg
   xmlns:dc="http://purl.org/dc/elements/1.1/"
   xmlns:cc="http://creativecommons.org/ns#"
   xmlns:rdf="http://www.w3.org/1999/02/22-rdf-syntax-ns#"
   xmlns:svg="http://www.w3.org/2000/svg"
   xmlns="http://www.w3.org/2000/svg"
   id="svg8"
   version="1.1"
   viewBox="0 0 210 297"
   height="297mm"
   width="210mm">
  <defs
     id="defs2" />
  <metadata
     id="metadata5">
    <rdf:RDF>
      <cc:Work
         rdf:about="">
        <dc:format>image/svg+xml</dc:format>
        <dc:type
           rdf:resource="http://purl.org/dc/dcmitype/StillImage" />
        <dc:title></dc:title>
      </cc:Work>
    </rdf:RDF>
  </metadata>
  <g
     id="layer1">
    <g
       id="g56">
      <path
         points="49.578497,125.43969 66.515935,127.87442 66.515935,122.79359 49.578497,119.75911 "
         d="m 49.578497,119.75911 v 5.68058 l 16.937438,2.43473 v -5.08083 z"
         style="fill:#353564;fill-rule:evenodd;stroke:none;stroke-linejoin:round"
         id="path58" />
      <path
         points="97.491465,110.82248 97.491465,118.26937 66.515935,127.87442 66.515935,122.79359 "
         d="m 66.515935,122.79359 30.97553,-11.97111 v 7.44689 l -30.97553,9.60505 z"
         style="fill:#e9e9ff;fill-rule:evenodd;stroke:none;stroke-linejoin:round"
         id="path68" />
      <path
         points="76.893443,103.9245 97.491465,110.82248 66.515935,122.79359 49.578497,119.75911 "
         d="m 49.578497,119.75911 27.314946,-15.83461 20.598022,6.89798 -30.97553,11.97111 z"
         style="fill:#4d4d9f;fill-rule:evenodd;stroke:none;stroke-linejoin:round"
         id="path60" />
      <path
         points="76.893443,112.73476 97.491465,118.26937 66.515935,127.87442 49.578497,125.43969 "
         d="m 49.578497,125.43969 27.314946,-12.70493 20.598022,5.53461 -30.97553,9.60505 z"
         style="fill:#afafde;fill-rule:evenodd;stroke:none;stroke-linejoin:round"
         id="path66" />
      <path
         points="76.893443,112.73476 97.491465,118.26937 97.491465,110.82248 76.893443,103.9245 "
         d="m 76.893443,103.9245 v 8.81026 l 20.598022,5.53461 v -7.44689 z"
         style="fill:#d7d7ff;fill-rule:evenodd;stroke:none;stroke-linejoin:round"
         id="path64" />
      <path
         points="76.893443,103.9245 76.893443,112.73476 49.578497,125.43969 49.578497,119.75911 "
         d="M 49.578497,119.75911 76.893443,103.9245 v 8.81026 l -27.314946,12.70493 z"
         style="fill:#8686bf;fill-rule:evenodd;stroke:none;stroke-linejoin:round"
         id="path62" />
    </g>
  </g>
</svg>
